<svg version="1.1" xmlns="http://www.w3.org/2000/svg" xmlns:xlink="http://www.w3.org/1999/xlink" viewBox="0 0 226 226"><g fill="none" fill-rule="nonzero" stroke="none" stroke-width="1" stroke-linecap="butt" stroke-linejoin="miter" stroke-miterlimit="10" stroke-dasharray="" stroke-dashoffset="0" font-family="none" font-weight="none" font-size="none" text-anchor="none" style="mix-blend-mode: normal"><path d="M0,226v-226h226v226z" fill="none"></path><g fill="#ffffff"><path d="M188.33333,0c-20.81966,0 -37.66667,16.84701 -37.66667,37.66667c0,2.61166 0.36784,5.18652 0.88281,7.65104l-85.63281,42.96354c-6.91536,-7.90853 -16.92057,-12.94792 -28.25,-12.94792c-20.81966,0 -37.66667,16.84701 -37.66667,37.66667c0,20.81967 16.84701,37.66667 37.66667,37.66667c11.32943,0 21.33464,-5.03939 28.25,-12.94792l85.63281,42.96354c-0.51497,2.46452 -0.88281,5.03939 -0.88281,7.65104c0,20.81967 16.84701,37.66667 37.66667,37.66667c20.81967,0 37.66667,-16.847 37.66667,-37.66667c0,-20.81966 -16.847,-37.66667 -37.66667,-37.66667c-11.32943,0 -21.33464,5.03939 -28.25,12.94792l-85.63281,-42.96354c0.51498,-2.46452 0.88281,-5.03939 0.88281,-7.65104c0,-2.61166 -0.36783,-5.18652 -0.88281,-7.65104l85.63281,-42.96354c6.91536,7.90853 16.92057,12.94792 28.25,12.94792c20.81967,0 37.66667,-16.847 37.66667,-37.66667c0,-20.81966 -16.847,-37.66667 -37.66667,-37.66667z"></path></g></g></svg>